<svg width="35" height="34" viewBox="0 0 35 34" fill="none" xmlns="http://www.w3.org/2000/svg">
<g clip-path="url(#clip0_4002_136)">
<path d="M15.9309 6.38117C16.202 6.26383 16.4937 6.20104 16.7891 6.1964C17.0845 6.19176 17.3773 6.24466 17.652 6.35343C17.9267 6.4622 18.1774 6.62402 18.3895 6.82965C18.6017 7.03527 18.7713 7.28068 18.8887 7.55186C19.006 7.82303 19.0688 8.11467 19.0735 8.41011L19.1909 15.8199L20.685 15.4674L20.5738 8.38795C20.5582 7.39348 20.1483 6.4459 19.4341 5.75367C18.7199 5.06145 17.76 4.68129 16.7655 4.69681C15.7711 4.71234 14.8235 5.12229 14.1313 5.83647C13.439 6.55065 13.0589 7.51056 13.0744 8.50504L13.3181 23.9739C13.32 24.6691 13.46 25.3569 13.7298 25.9975C13.9997 26.6382 14.3941 27.2188 14.8902 27.7058C15.3863 28.1928 15.9741 28.5764 16.6196 28.8344C17.2651 29.0924 17.9554 29.2196 18.6505 29.2087C19.3456 29.1978 20.0316 29.049 20.6686 28.7708C21.3057 28.4927 21.8812 28.0908 22.3618 27.5885C22.8423 27.0861 23.2183 26.4934 23.4679 25.8446C23.7175 25.1958 23.8358 24.5039 23.8159 23.809L23.645 12.9308C23.6351 12.7367 23.5503 12.5541 23.4084 12.4213C23.2665 12.2886 23.0785 12.2161 22.8842 12.2191C22.6899 12.2222 22.5044 12.3005 22.3667 12.4377C22.229 12.5748 22.15 12.7601 22.1462 12.9544L22.317 23.8326C22.3327 24.827 21.9528 25.787 21.2607 26.5013C20.5686 27.2156 19.6211 27.6258 18.6266 27.6415C17.6321 27.6572 16.6721 27.2772 15.9578 26.5851C15.2435 25.893 14.8334 24.9455 14.8177 23.9511L14.5747 8.48147C14.5701 8.18603 14.6237 7.89257 14.7324 7.61785C14.8412 7.34312 15.003 7.09251 15.2086 6.88032C15.4143 6.66813 15.6597 6.49852 15.9309 6.38117Z" fill="#0353F1"/>
<path d="M16.3609 12.3577C16.2229 12.4978 16.1454 12.6865 16.1452 12.8831L16.2025 16.5333L17.697 16.1812L17.6448 12.8589C17.6382 12.6623 17.5547 12.4762 17.4122 12.3407C17.2697 12.2051 17.0797 12.1309 16.8831 12.1341C16.6864 12.1373 16.4989 12.2176 16.3609 12.3577Z" fill="#0353F1"/>
</g>
<defs>
<clipPath id="clip0_4002_136">
<rect width="24" height="24" fill="white" transform="translate(0.959961 17.2725) rotate(-45.8999)"/>
</clipPath>
</defs>
</svg>
