<svg width="29" height="53" viewBox="0 0 29 53" fill="none" xmlns="http://www.w3.org/2000/svg">
<g clip-path="url(#clip0_4002_85)">
<path d="M26.4316 37.2691C25.9876 36.0632 26.0006 35.7589 26.5742 34.3893C26.2172 34.4541 25.8951 34.5068 25.5751 34.5716C24.5456 34.7781 23.5171 34.989 22.4887 35.1998C22.2231 35.2537 21.9587 35.3207 21.6899 35.3602C21.6213 35.3701 21.4755 35.2987 21.4744 35.2625C21.4602 34.7254 21.4646 34.1883 21.4646 33.6413C21.7171 33.6193 21.8499 33.75 21.9543 33.9148C22.1546 34.2322 22.4462 34.4123 22.8533 34.5299C22.8043 34.3552 22.7597 34.2168 22.7281 34.0762C22.5388 33.2316 22.3505 32.3859 22.1644 31.539C22.1132 31.3051 22.2678 31.3216 22.4082 31.3611C22.9578 31.5127 23.5063 31.6719 24.0548 31.8279C25.2911 32.1794 26.5274 32.5308 27.7637 32.8812C27.9378 32.9306 28.1152 32.968 28.2883 33.0229C28.4733 33.0811 28.6126 33.1932 28.6213 33.4073C28.6289 33.6094 28.5135 33.7182 28.334 33.7907C27.6418 34.0707 27.1303 34.5299 26.9377 35.2844C26.7962 35.8413 26.8756 36.3938 27.0313 36.9341C27.0574 37.0264 27.1869 37.1132 27.287 37.1538C27.7648 37.3493 28.2534 37.5174 28.7279 37.7195C28.8411 37.7678 28.9782 37.8974 28.9957 38.0072C29.0239 38.1874 28.8618 38.2533 28.6942 38.2862C28.3307 38.3565 27.9705 38.4411 27.5569 38.5301C28.6278 40.4632 28.4624 42.2634 27.0149 43.9636C27.1194 44.0097 27.2359 44.0361 27.3186 44.1031C27.4514 44.2107 27.6287 44.3272 27.6647 44.4722C27.7136 44.6677 27.496 44.705 27.3414 44.7643C26.5165 45.0806 26.091 45.721 26.03 46.5799C25.9974 47.0291 26.0823 47.4882 26.1378 47.9408C26.1476 48.0209 26.2575 48.1242 26.3424 48.1527C26.7962 48.3087 27.2565 48.4438 27.7136 48.5866C27.7659 48.6031 27.8301 48.6031 27.8671 48.6371C27.9552 48.7184 28.1032 48.8227 28.0935 48.9029C28.0815 49.0062 27.9574 49.1446 27.8529 49.1786C27.5014 49.2939 27.1368 49.3719 26.7766 49.4609C25.6437 49.7421 24.5097 50.0243 23.3757 50.3022C22.0915 50.6174 20.8062 50.925 19.5231 51.2413C18.4239 51.5126 17.328 51.7938 16.2299 52.0662C15.1318 52.3386 14.0163 52.5538 12.9388 52.8932C12.2684 53.1041 11.6982 52.9756 11.0822 52.7581C9.21358 52.0969 7.33517 51.4632 5.45893 50.8217C4.2335 50.4033 3.00807 49.9859 1.78047 49.5751C0.833646 49.2577 0.128426 48.2966 0.10666 47.2949C0.099042 46.9588 0.0576865 46.6227 0.027214 46.2866C-0.0467906 45.4453 0.174135 44.6962 0.713933 44.046C0.74114 44.013 0.759642 43.9713 0.797732 43.9065C0.596396 43.8582 0.415738 43.812 0.232903 43.7703C0.0838057 43.7363 -0.0413491 43.6583 0.00871284 43.4935C0.0424502 43.3848 0.139309 43.2497 0.237256 43.2156C0.724816 43.0487 1.22217 42.9092 1.71844 42.7664C2.11784 42.6511 2.24517 42.4984 2.28653 42.0722C2.36162 41.2924 2.30177 40.5378 1.72714 39.948C1.46595 39.68 1.13184 39.4801 0.816233 39.2714C0.659518 39.1671 0.416826 39.1177 0.45274 38.8903C0.487566 38.6663 0.718286 38.6289 0.919622 38.5828C1.25808 38.5048 1.5911 38.4037 1.97963 38.2972C1.80006 38.1259 1.62593 38.0204 1.54104 37.8656C1.31359 37.4537 1.06001 37.0396 0.934858 36.5937C0.687814 35.7139 0.694344 34.8165 1.08722 33.9686C1.48554 33.1075 2.16573 32.5781 3.09949 32.4298C4.78963 32.1607 6.48411 31.9147 8.17642 31.6588C9.37682 31.4775 10.5772 31.3018 11.7754 31.1085C11.992 31.0733 12.0867 31.1414 12.1531 31.3347C12.3142 31.8048 12.5873 32.1728 13.0618 32.3123C13.0618 32.555 13.0705 32.7813 13.0564 33.0064C13.052 33.0723 12.9998 33.1558 12.9443 33.1943C12.5917 33.4436 12.2304 33.6808 11.8756 33.9269C11.7711 33.9993 11.671 34.0806 11.5839 34.1729C11.3673 34.4035 11.0953 34.4321 10.809 34.4024C10.5598 34.3761 10.4553 34.4552 10.4597 34.733C10.4727 35.5008 10.4597 35.5008 11.2248 35.5008C13.4101 35.5008 15.5954 35.5008 17.7807 35.5008C18.0433 35.5008 18.1747 35.3642 18.1747 35.0911C18.1747 34.9395 18.1747 34.7869 18.1747 34.6353C18.2008 34.6199 18.2258 34.6056 18.2519 34.5903C18.697 34.9582 19.1422 35.3262 19.5873 35.6941C19.5829 35.7227 19.5786 35.7501 19.5742 35.7787C19.3261 35.8358 19.079 35.8973 18.8298 35.9478C17.4281 36.2356 16.0253 36.5212 14.6235 36.8067C14.4015 36.8518 14.1817 36.9056 13.9575 36.9385C13.8051 36.9605 13.7311 37.0264 13.7311 37.1846C13.7333 38.2192 13.7333 39.2528 13.7311 40.2874C13.7311 40.5422 13.9009 40.4818 14.0337 40.45C14.518 40.3347 15.0001 40.2083 15.4822 40.0864C16.5879 39.8074 17.6947 39.5296 18.8004 39.2484C19.8713 38.9771 20.9411 38.7014 22.0109 38.4301C23.0992 38.1544 24.1875 37.8798 25.2758 37.6052C25.6002 37.524 25.9266 37.4482 26.251 37.3636C26.3152 37.3471 26.3718 37.2988 26.4283 37.2669L26.4316 37.2691ZM15.9589 45.4486C16.0035 46.0252 15.8457 46.0747 16.5509 45.8726C16.6467 45.8451 16.7468 45.8341 16.8426 45.8089C18.3031 45.4222 19.7614 45.0312 21.2219 44.6468C22.8054 44.2305 24.3932 43.8329 25.9734 43.4035C26.5143 43.2563 26.9453 42.8971 27.003 42.3205C27.0802 41.5527 27.1085 40.7674 27.0443 39.9997C26.9866 39.3077 26.4164 39.0155 25.7482 39.2275C25.2138 39.3967 24.6805 39.5746 24.1484 39.7503C22.8859 40.1677 21.6246 40.5884 20.3632 41.0057C18.9376 41.478 17.513 41.9525 16.0851 42.416C15.9219 42.4688 15.8696 42.55 15.8718 42.7082L15.9578 45.4475L15.9589 45.4486ZM13.1957 37.3515C13.224 37.055 13.1053 36.9352 12.8409 36.8507C11.548 36.4388 10.2594 36.0137 8.97089 35.5887C7.07942 34.9648 5.19012 34.3376 3.29974 33.7116C2.60867 33.4831 2.02643 33.9005 2.01881 34.6375C2.01228 35.2603 2.01228 35.8819 2.01881 36.5047C2.02534 37.1198 2.38774 37.6481 2.96454 37.8425C3.38463 37.9831 3.81886 38.0786 4.24765 38.1929C5.28807 38.4707 6.32958 38.7497 7.37108 39.0243C8.5791 39.3417 9.78929 39.6537 10.9973 39.97C11.5926 40.126 12.1857 40.2907 12.7821 40.4456C13.0683 40.5192 13.1151 40.4774 13.1162 40.1754L13.1968 37.3515H13.1957ZM0.981655 46.4646C0.981655 46.7842 0.979479 47.1049 0.981655 47.4245C0.987097 48.0308 1.41045 48.6217 1.97963 48.7876C2.53575 48.949 3.09732 49.0907 3.6567 49.2368C5.127 49.6201 6.59947 49.998 8.06977 50.3824C9.31261 50.7064 10.5565 51.0304 11.7961 51.3654C12.0268 51.428 12.0823 51.3621 12.0845 51.1392C12.09 50.5911 12.1161 50.043 12.1335 49.496C12.1476 49.0391 12.1705 48.5833 12.164 48.1264C12.1629 48.0275 12.0758 47.8825 11.9898 47.8397C11.7809 47.7365 11.5491 47.6793 11.326 47.6069C9.81323 47.1104 8.30049 46.615 6.78775 46.1197C5.24889 45.6144 3.71112 45.1059 2.17117 44.6062C1.5911 44.4183 0.992538 44.8632 0.982744 45.4782C0.977302 45.8078 0.982744 46.1373 0.982744 46.4657L0.981655 46.4646ZM25.6393 45.3014C25.5174 45.3124 25.4402 45.3113 25.3651 45.3267C24.7622 45.453 24.1614 45.587 23.5585 45.7078C21.8292 46.056 20.0977 46.3965 18.3684 46.7457C16.5934 47.1049 14.8205 47.4729 13.0444 47.8298C12.8278 47.8738 12.7451 47.9726 12.7484 48.2011C12.7593 49.0699 12.7484 49.9398 12.7538 50.8086C12.7593 51.5313 12.6472 51.461 13.3981 51.2754C14.4701 51.0107 15.5377 50.7306 16.6086 50.4604C17.8373 50.1506 19.0671 49.8442 20.2958 49.5345C21.5506 49.2181 22.8054 48.9018 24.0602 48.5833C24.5216 48.4669 24.982 48.345 25.4641 48.2208C25.0223 47.2224 24.9885 46.2713 25.6393 45.3003V45.3014ZM2.40733 39.8854C2.99175 40.8026 3.03093 41.69 2.64894 42.6093C2.57167 42.7939 2.64893 42.8433 2.81653 42.885C3.92334 43.1596 5.02796 43.4463 6.13368 43.7253C7.20457 43.9955 8.27655 44.2602 9.34744 44.5293C10.4357 44.8028 11.524 45.0806 12.6113 45.3552C13.4101 45.5573 14.2089 45.7583 15.0066 45.9615C15.172 46.0033 15.2928 46.0033 15.2928 45.777C15.2896 44.7522 15.2961 43.7275 15.282 42.7027C15.2809 42.6159 15.1579 42.4742 15.0697 42.4534C14.3732 42.293 13.6713 42.1546 12.9704 42.0129C11.4435 41.7054 9.91444 41.4034 8.38864 41.0925C6.68545 40.7454 4.98552 40.3885 3.28233 40.0392C3.01025 39.9832 2.736 39.9425 2.40842 39.8854H2.40733Z" fill="#4D4D4D"/>
<path d="M11.7635 7.9206C12.2967 7.48346 12.7995 7.03972 13.3339 6.64102C14.1381 6.04022 15.0327 5.59429 15.9589 5.22194C16.564 4.97811 17.0428 4.56403 17.5228 4.14995C18.7243 3.1142 19.559 1.81265 20.1673 0.352939C20.2011 0.27276 20.2468 0.198071 20.3393 0.12558C20.3741 0.455086 20.3915 0.787888 20.4492 1.1141C20.5667 1.77751 20.4068 2.34975 19.9845 2.87037C19.6069 3.33607 19.2586 3.82703 18.8973 4.30702C18.8548 4.36303 18.8135 4.42124 18.7917 4.4509C19.1824 4.83423 19.5916 5.17252 19.9236 5.57452C20.9281 6.79149 21.3601 8.21276 21.3177 9.79C21.3024 10.2129 21.3024 10.1612 20.9575 10.2579C20.7529 10.315 20.5504 10.3831 20.3066 10.4611C20.3251 10.3238 20.3382 10.237 20.348 10.1503C20.5755 8.18421 19.9421 6.57841 18.3869 5.35375C18.1768 5.18899 18.0147 5.17252 17.7981 5.37132C17.1745 5.94137 16.3964 6.22145 15.6259 6.52349C14.4984 6.96613 13.5069 7.62624 12.6602 8.50712C12.4077 8.77073 12.2641 9.03982 12.2728 9.42425C12.3011 10.706 12.7059 11.8066 13.7148 12.6281C14.1153 12.9544 14.5822 13.151 15.0937 13.2344C15.2047 13.2531 15.3135 13.2872 15.4985 13.3311C15.1905 13.5892 14.9511 13.8221 14.6769 14.0011C14.5854 14.0604 14.3885 14.011 14.2666 13.955C13.914 13.7913 13.5668 13.6134 13.2349 13.4124C13.076 13.3157 12.9813 13.33 12.8572 13.4497C12.5166 13.7759 12.1683 14.0923 11.7744 14.458C11.4446 14.1098 11.117 13.7836 10.8134 13.4365C10.6588 13.2608 10.5467 13.2619 10.3639 13.397C9.31479 14.1702 8.1318 14.3339 6.87481 14.1538C5.81372 14.0022 4.84513 13.6233 3.99952 12.9555C2.80674 12.012 2.19729 10.7752 2.27782 9.24082C2.38012 7.29893 3.16588 5.70632 4.75698 4.55634C4.80704 4.5201 4.84839 4.47287 4.89628 4.42783C4.5502 3.95664 4.21065 3.49753 3.87436 3.03622C3.78295 2.91101 3.70459 2.77701 3.61426 2.6518C3.28233 2.19378 3.07881 1.716 3.24315 1.12398C3.31715 0.855986 3.29539 0.561627 3.32368 0.27935C3.33239 0.195875 3.36177 0.115695 3.38898 0.00585938C3.685 0.597872 3.93857 1.16023 4.23894 1.69623C4.96375 2.98569 5.90078 4.09284 7.1556 4.88475C7.60398 5.16813 8.11548 5.34826 8.58998 5.59209C9.7512 6.1885 10.8254 6.90792 11.7112 7.88655C11.7341 7.91181 11.7678 7.92719 11.7656 7.92499L11.7635 7.9206ZM3.15282 9.27927C3.16479 10.2919 3.44557 11.1036 4.07135 11.7725C5.12918 12.9027 6.47541 13.3553 7.97291 13.3003C9.25058 13.2531 10.229 12.6227 10.8275 11.4584C11.1758 10.7818 11.3434 10.0536 11.3151 9.29135C11.3086 9.11451 11.2476 8.90912 11.141 8.77292C10.3421 7.75365 9.30282 7.04741 8.13616 6.53228C7.3417 6.18191 6.50153 5.9194 5.8529 5.30322C5.66136 5.12199 5.51335 5.13737 5.3131 5.27576C3.88307 6.26428 3.27689 7.69104 3.15282 9.28036V9.27927ZM11.7722 11.6462C11.635 11.8824 11.5132 12.1141 11.3706 12.3327C11.0256 12.8621 11.0202 12.861 11.4762 13.3146C11.8266 13.6639 11.7831 13.7012 12.1455 13.3399C12.2608 13.2246 12.3958 13.1268 12.5002 13.0027C12.5427 12.9522 12.5688 12.8291 12.5373 12.7819C12.2989 12.4096 12.0453 12.0471 11.7711 11.6451L11.7722 11.6462Z" fill="#4D4D4D"/>
<path d="M21.7595 33.2117C21.6409 32.8328 21.5027 32.4593 21.4091 32.0749C21.2295 31.339 21.0423 30.4768 20.8943 29.7343C20.8704 29.608 20.9052 29.6157 20.9455 29.5498C21.0587 29.3664 21.1751 29.206 21.236 28.9995C21.2633 28.9062 21.2654 28.8205 21.285 28.6426C21.2916 28.5876 21.1947 28.5184 21.1196 28.4591C21.0282 28.3866 20.9531 28.2746 20.8878 28.1834C20.5635 27.7265 20.5069 27.1916 20.459 26.6512C20.3915 25.9055 20.3088 25.1597 20.2359 24.4139C20.2272 24.326 20.2348 24.236 20.2348 24.1118C20.348 24.1261 20.4383 24.158 20.5178 24.1404C20.6146 24.1184 20.7452 24.0767 20.7811 24.0031C20.8094 23.946 20.6984 23.7944 20.6418 23.7593C20.3785 23.5967 20.1869 23.5209 20.1847 23.4891C20.1706 23.2826 20.1325 23.0695 20.0563 22.3358C19.941 20.6586 19.8648 18.9781 19.793 17.2987C19.7483 16.2487 19.7342 15.1976 19.7179 14.1476C19.7059 13.4292 19.9627 12.7691 20.1826 12.1035C20.3034 11.74 20.4329 11.3797 20.5548 11.0173C20.5852 10.9272 20.6005 10.8316 20.6299 10.7064C20.5461 10.7185 20.4993 10.713 20.4655 10.7317C18.5305 11.8147 16.6554 12.9866 15.0218 14.5122C13.8008 15.6523 12.7549 16.9242 12.1389 18.5102C11.6361 19.8052 11.511 21.1298 11.8386 22.4885C11.8701 22.6192 11.8875 22.7543 11.9202 22.9366C11.634 22.9366 11.45 22.9421 11.1725 22.9201C10.9908 22.9058 10.8079 22.9102 10.6262 22.9256C10.4227 22.9432 10.353 22.8872 10.3051 22.707C10.156 22.1458 10.2398 21.6021 10.39 21.0584C11.2813 17.826 13.2196 15.3415 15.8163 13.3304C17.3182 12.1672 18.9517 11.238 20.7104 10.5296C20.9128 10.4483 20.9476 10.5362 20.9509 10.7097C20.9596 11.148 20.9814 11.5862 20.9857 12.0245C21.001 13.7719 20.9912 15.5194 21.0282 17.2669C21.0608 18.82 21.1392 20.3719 21.2023 21.9239C21.2469 23.0289 21.2752 24.1349 21.3547 25.2377C21.4613 26.7325 21.5865 28.2263 21.7475 29.7156C21.8596 30.7503 22.0349 31.7784 22.2035 32.8053C22.2667 33.1908 22.3929 33.5654 22.4876 33.9454C22.5039 34.0124 22.5104 34.0816 22.5311 34.2123C22.419 34.1332 22.3331 34.1025 22.2971 34.0421C21.975 33.5094 21.4091 33.3117 20.9172 33.0195C19.424 32.1342 17.994 31.1534 16.6445 30.0594C16.4813 29.9276 16.3898 29.6959 16.2854 29.4993C16.1493 29.2434 16.0318 28.9765 15.9088 28.7129C15.9034 28.7019 15.9197 28.681 15.9371 28.6371C16.2396 28.893 16.5302 29.1489 16.8317 29.3905C17.291 29.7585 17.7535 30.1198 18.2214 30.4757C19.0377 31.0974 19.8648 31.7048 20.6734 32.3341C20.9661 32.5615 21.2219 32.8383 21.4962 33.0909C21.5593 33.1491 21.6311 33.1985 21.6986 33.2512L21.7573 33.2106L21.7595 33.2117Z" fill="#4D4D4D"/>
<path d="M21.0989 28.6794C21.1392 29.2066 20.6516 29.769 20.0748 29.7855C19.35 29.8063 18.6241 29.8008 17.8993 29.7877C17.4128 29.7789 16.909 29.3121 16.8719 28.8541C16.8654 28.7695 16.9351 28.6739 16.983 28.5905C17.0276 28.5147 17.1005 28.4554 17.1429 28.3796C17.624 27.5108 18.0996 26.6387 18.5828 25.771C18.66 25.6326 18.6491 25.537 18.5479 25.4074C18.2029 24.9648 18.2617 24.4881 18.6655 24.0905C18.7438 24.0136 18.7602 23.8741 18.8048 23.7632C18.7025 23.7291 18.6002 23.6654 18.4979 23.6643C17.5728 23.6512 16.6891 23.8829 15.8065 24.1344C15.505 24.2201 15.1873 24.2915 14.8771 24.2915C14.2459 24.2915 13.6114 24.2728 12.9867 24.1926C12.497 24.13 12.0268 23.9235 11.5371 23.8511C11.0299 23.7753 10.5097 23.7797 9.99496 23.7588C9.93402 23.7566 9.81539 23.8148 9.81757 23.839C9.82301 23.9203 9.84913 24.0213 9.90355 24.0751C10.3595 24.5254 10.3911 25.0395 9.95361 25.4865C9.80342 25.6403 9.89375 25.7523 9.95579 25.8742C10.3465 26.6464 10.7394 27.4163 11.1409 28.183C11.2324 28.3576 11.2617 28.597 11.5262 28.6366C11.5469 28.6399 11.5665 28.7651 11.5599 28.8299C11.5034 29.3373 11.0191 29.7833 10.4967 29.7899C9.79907 29.7997 9.10038 29.7997 8.40278 29.7899C7.87822 29.7822 7.40154 29.3648 7.31774 28.8442C7.30577 28.7695 7.38304 28.6739 7.4331 28.5959C7.47554 28.5289 7.54955 28.4828 7.58764 28.4136C8.07629 27.5283 8.5584 26.6387 9.05141 25.7556C9.12432 25.6238 9.12323 25.5425 9.02529 25.4206C8.66832 24.9813 8.71947 24.4716 9.13738 24.085C9.18853 24.0378 9.219 23.9675 9.26036 23.9082C9.24621 23.884 9.23315 23.8598 9.219 23.8357C8.8283 23.8928 8.43652 23.951 8.04581 24.0081C8.03928 23.984 8.03384 23.9598 8.02731 23.9356C8.39625 23.6446 8.82395 23.4644 9.27124 23.3359C10.4771 22.9867 11.696 23.0745 12.9084 23.2865C13.8018 23.4425 14.6747 23.4622 15.5736 23.2678C17.1331 22.9306 18.6861 22.9229 20.1652 23.6599C20.2968 23.7258 20.4187 23.8126 20.545 23.8895C20.5939 23.9224 20.6342 23.9488 20.6299 23.9598C20.6255 23.9708 20.5787 23.9675 20.5178 23.9554C20.286 23.9049 20.0541 23.8522 19.8223 23.8038C19.7342 23.7852 19.6428 23.7621 19.5546 23.7665C19.4828 23.7709 19.3685 23.7972 19.3522 23.8434C19.3315 23.9005 19.374 23.9993 19.4186 24.0597C19.5035 24.1762 19.6319 24.264 19.7004 24.3871C19.9007 24.7473 19.831 25.1658 19.5231 25.4645C19.4175 25.5667 19.375 25.6381 19.4523 25.7875C19.9105 26.6683 20.3523 27.5569 20.8116 28.4367C20.8638 28.5355 20.9944 28.5926 21.1022 28.6794H21.0989ZM17.44 28.5981C17.9026 28.5981 18.2726 28.608 18.6415 28.5883C18.7014 28.585 18.7993 28.4532 18.8037 28.3763C18.8222 28.0391 18.8113 27.6997 18.8124 27.3614C18.8124 27.0176 18.8124 26.6738 18.8124 26.3311C18.7797 26.3202 18.746 26.3092 18.7134 26.2982C18.302 27.0418 17.8906 27.7854 17.44 28.6003V28.5981ZM19.2455 26.1949C19.2172 26.2048 19.1889 26.2147 19.1606 26.2246C19.1606 26.9715 19.1585 27.7184 19.165 28.4652C19.165 28.5092 19.2325 28.5894 19.2706 28.5905C19.6536 28.6003 20.0378 28.5959 20.4786 28.5959C20.0465 27.7535 19.646 26.9748 19.2455 26.1949ZM10.9396 28.5981C10.5239 27.7876 10.1375 27.0363 9.73377 26.2488C9.68262 26.3245 9.64888 26.3509 9.6478 26.3784C9.64235 27.0648 9.63691 27.7502 9.64453 28.4367C9.64453 28.4916 9.73377 28.5894 9.78492 28.5916C10.1441 28.6047 10.5043 28.5992 10.9396 28.5992V28.5981ZM9.23751 26.3125C9.21574 26.3059 9.19289 26.2993 9.17112 26.2916C8.75865 27.0418 8.34727 27.793 7.90433 28.5992C8.35598 28.5992 8.73362 28.6091 9.10909 28.5894C9.16677 28.5861 9.26145 28.4499 9.26254 28.373C9.27451 27.7447 9.27016 27.1154 9.26798 26.486C9.26798 26.4278 9.24839 26.3696 9.23751 26.3114V26.3125ZM18.832 25.0483C18.832 25.1581 18.8026 25.28 18.8418 25.3734C18.8712 25.4437 18.9865 25.5107 19.066 25.514C19.1302 25.5162 19.2477 25.4272 19.2542 25.3679C19.2782 25.1691 19.2815 24.9637 19.2532 24.7671C19.2434 24.7001 19.116 24.6056 19.0431 24.6067C18.9713 24.6078 18.8744 24.7012 18.8385 24.7781C18.8037 24.8528 18.8309 24.9571 18.832 25.0483ZM9.70548 25.0559C9.70548 24.9835 9.7033 24.9099 9.70548 24.8374C9.71201 24.688 9.67065 24.5891 9.49543 24.5935C9.33763 24.5979 9.26471 24.6671 9.27015 24.8297C9.2756 24.9933 9.27668 25.1581 9.27015 25.3229C9.26363 25.481 9.34416 25.526 9.48564 25.5282C9.62712 25.5304 9.71418 25.4942 9.70439 25.3305C9.69895 25.2394 9.70439 25.1482 9.70439 25.057L9.70548 25.0559Z" fill="#4D4D4D"/>
<path d="M13.4482 32.3281C13.4275 32.3435 13.4068 32.3589 13.3872 32.3754C13.1979 32.5445 13.2 32.8993 13.2566 33.12C13.2882 33.1914 13.5026 33.1552 13.6593 33.1574C14.0217 33.1629 14.3841 33.1596 14.7465 33.1585C14.8934 33.1585 15.1764 33.2002 15.1851 33.0959C15.2101 32.7927 15.1927 32.7477 15.1241 32.5039C15.1002 32.461 15.0686 32.4237 15.036 32.3896C15.0077 32.36 14.9696 32.3435 14.9293 32.3424L13.4471 32.3281H13.4482Z" fill="#4D4D4D"/>
<path d="M13.4732 32.2324C12.3512 32.1918 11.9311 30.6442 12.349 29.7941C12.6221 29.2394 12.9116 28.6913 13.1663 28.129C13.643 27.0767 13.7333 25.9685 13.6027 24.8306C13.5613 24.4725 13.4786 24.4835 13.8748 24.4824C14.112 24.4824 14.5016 24.4824 14.7389 24.4824C15.1339 24.4835 15.0491 24.4769 15.0349 24.8438C15.0175 25.3007 15.0023 25.7576 15.0099 26.2145C15.0273 27.2349 15.3886 28.152 15.8479 29.045C16.0666 29.4701 16.2353 29.9281 16.3692 30.3883C16.5531 31.022 16.3398 31.5437 15.7782 31.8941C15.5932 32.0094 15.3973 32.1182 15.1927 32.1962C15.0774 32.2401 14.9544 32.2588 14.8314 32.2566L13.4732 32.2313V32.2324Z" fill="#4D4D4D"/>
<path d="M14.3232 35.3007C13.1989 35.3007 12.0747 35.2941 10.9505 35.3062C10.7187 35.3084 10.6414 35.2293 10.6665 35.0064C10.6882 34.8142 10.5859 34.5429 10.9451 34.5868C11.2596 34.6263 11.499 34.5033 11.7254 34.2902C11.9768 34.0541 12.2543 33.8454 12.5231 33.6301C12.7723 33.4302 13.0542 33.3336 13.3796 33.3402C13.9869 33.3511 14.5941 33.3468 15.2014 33.3424C15.5421 33.3402 15.8402 33.4346 16.1004 33.6642C16.3322 33.8685 16.5868 34.0464 16.811 34.2595C17.0624 34.4989 17.3334 34.6406 17.6893 34.5879C18.0081 34.5407 17.9722 34.768 17.9809 34.9745C17.9886 35.1854 17.9646 35.3106 17.6958 35.3073C16.5716 35.293 15.4474 35.3018 14.3232 35.3018V35.3007Z" fill="#4D4D4D"/>
<path d="M4.57413 14.4756C4.56107 14.5799 4.55672 14.6865 4.53495 14.7886C4.17472 16.5152 4.00168 18.2506 4.21935 20.0146C4.4283 21.7159 4.98986 23.2734 5.99872 24.6584C6.56028 25.4295 7.22959 26.0929 7.9729 26.6838C8.0567 26.7497 8.1775 26.8859 8.15682 26.9463C8.0937 27.1297 7.97399 27.2956 7.86298 27.4592C7.8521 27.4746 7.74545 27.4461 7.69974 27.4142C5.87357 26.1291 4.53713 24.4937 4.00168 22.2552C3.64146 20.7494 3.61316 19.238 3.78185 17.7102C3.90047 16.6349 4.14316 15.5893 4.46421 14.5591C4.47401 14.5272 4.49142 14.4976 4.50557 14.4668C4.52842 14.469 4.55128 14.4723 4.57413 14.4745V14.4756Z" fill="#4D4D4D"/>
<path d="M15.4637 7.2744C16.5476 7.21509 17.6033 8.19153 17.5815 9.43596C17.5608 10.6354 16.6195 11.5832 15.4245 11.5756C14.2481 11.569 13.2773 10.587 13.3001 9.39642C13.3241 8.12123 14.3612 7.20301 15.4626 7.2744H15.4637ZM15.4669 7.82358C14.6692 7.77525 13.8661 8.43756 13.8476 9.42168C13.8312 10.2663 14.5887 11.0187 15.4234 11.0253C16.2941 11.033 17.0221 10.3146 17.0341 9.43706C17.045 8.54629 16.3474 7.82687 15.468 7.82358H15.4669Z" fill="#4D4D4D"/>
<path d="M20.0008 35.5695C20.0378 34.5986 20.0705 33.7122 20.1075 32.7467C20.5178 32.995 20.8584 33.1938 21.1882 33.409C21.2415 33.4442 21.2731 33.5507 21.2741 33.6243C21.2796 34.6579 21.2774 35.6914 21.2741 36.725C21.2741 36.7678 21.2546 36.8095 21.2263 36.9227C19.4262 35.2411 17.5228 33.7561 15.5965 32.3041C15.8511 31.9471 16.0035 31.9197 16.2973 32.1899C17.4488 33.2465 18.5969 34.3075 19.7462 35.3652C19.8038 35.4179 19.8681 35.4641 19.9997 35.5684L20.0008 35.5695Z" fill="#4D4D4D"/>
<path d="M10.9113 23.9857C11.4914 23.9648 11.9604 24.0879 12.4219 24.2405C12.4763 24.2581 12.5079 24.3504 12.5449 24.4108C12.8246 24.8688 13.1075 25.3235 13.3763 25.7881C13.434 25.8881 13.4634 26.0243 13.4569 26.1396C13.4416 26.3999 13.3948 26.6569 13.3197 26.9326C12.4164 26.0594 11.6503 25.0885 10.9113 23.9846V23.9857Z" fill="#4D4D4D"/>
<path d="M15.4245 32.3936C16.2505 33.0284 17.0776 33.6644 17.9037 34.2992C17.8906 34.3267 17.8775 34.353 17.8645 34.3805C17.5924 34.4068 17.3247 34.4683 17.0755 34.2421C16.8001 33.9928 16.5161 33.75 16.2135 33.5347C16.0122 33.3909 15.7815 33.2788 15.5486 33.1921C15.3929 33.1338 15.3276 33.0745 15.3494 32.9021C15.369 32.7516 15.3538 32.5957 15.3538 32.443C15.3766 32.4265 15.3995 32.41 15.4234 32.3936H15.4245Z" fill="#4D4D4D"/>
<path d="M14.2535 21.4805C14.4429 21.8803 14.7149 22.4635 14.8913 22.8688C14.9979 23.1148 15.1046 23.2181 14.8412 23.2323C14.58 23.2466 13.9575 23.2389 13.6974 23.217C13.6256 23.2104 13.6854 23.072 13.6974 23.0346C13.8563 22.5678 13.9967 22.2131 14.1719 21.7529C14.2132 21.6463 14.2328 21.5497 14.2524 21.4805H14.2535Z" fill="#4D4D4D"/>
<path d="M12.0595 29.9697C11.672 29.8445 11.4174 29.7544 11.4283 29.6808C11.4457 29.5677 11.5926 29.2975 11.7319 29.0042C11.7558 28.9537 11.7928 28.9197 11.8549 28.9339C11.9398 28.9537 12.0889 29.046 12.1716 29.0811C12.3664 29.1635 12.399 29.2832 12.2956 29.4677C12.2075 29.6248 12.1411 29.7929 12.0584 29.9697H12.0595Z" fill="#4D4D4D"/>
<path d="M8.02078 7.27488C9.15806 7.20788 10.1898 8.2612 10.1495 9.44742C10.1092 10.6358 9.19724 11.5771 8.01208 11.576C6.81386 11.5749 5.87683 10.6095 5.87792 9.38481C5.879 8.20518 6.89548 7.20568 8.0197 7.27488H8.02078ZM8.02296 7.82405C7.13708 7.82405 6.42642 8.53029 6.42424 9.41008C6.42207 10.2822 7.15232 11.0258 8.0099 11.0269C8.8849 11.0269 9.59556 10.3107 9.59665 9.42326C9.59773 8.51821 8.91428 7.82295 8.02296 7.82405Z" fill="#4D4D4D"/>
<path d="M9.96124 28.3861C9.75446 28.3938 9.79908 28.1049 9.80234 27.8896C10.155 28.0698 10.3661 28.2312 10.6295 28.3597C10.365 28.3828 10.2246 28.3762 9.96124 28.385V28.3861Z" fill="#4D4D4D"/>
<path d="M8.5965 28.0299C8.54535 27.9959 8.50073 27.964 8.52141 27.897C8.55732 27.7784 8.69989 27.4698 8.7739 27.3687C8.81416 27.3149 8.86314 27.3489 8.91537 27.3698C8.97523 27.3951 9.06338 27.4698 9.06774 27.5291C9.08733 27.7993 9.071 28.0167 9.07535 28.288C8.9404 28.2112 8.76083 28.1376 8.5965 28.0288V28.0299Z" fill="#4D4D4D"/>
<path d="M15.4354 8.48439C15.9806 8.4811 16.4149 8.90506 16.4181 9.44326C16.4214 9.98914 16.0057 10.4131 15.4572 10.4219C14.9141 10.4307 14.4842 10.01 14.4788 9.46193C14.4733 8.91385 14.8891 8.48879 15.4365 8.48549L15.4354 8.48439ZM15.332 9.8178C15.5921 9.8178 15.7956 9.6146 15.7967 9.35539C15.7989 9.0797 15.5921 8.86113 15.3266 8.85783C15.0969 8.85564 14.8553 9.09618 14.8499 9.33232C14.8445 9.59703 15.0643 9.8178 15.3309 9.8178H15.332Z" fill="#4D4D4D"/>
<path d="M7.05982 9.44776C7.06417 8.8843 7.46467 8.4823 8.0197 8.4834C8.56929 8.4845 8.97958 8.89858 8.98067 9.45435C8.98067 10.0024 8.56385 10.4198 8.01426 10.4209C7.46793 10.422 7.05546 10.0024 7.05982 9.44776ZM7.90434 9.8168C8.15465 9.8168 8.37666 9.59933 8.37993 9.3522C8.38319 9.09628 8.15139 8.85904 7.89563 8.85684C7.66927 8.85574 7.41896 9.10397 7.41569 9.33463C7.41243 9.60043 7.63118 9.8168 7.90434 9.81571V9.8168Z" fill="#4D4D4D"/>
</g>
<defs>
<clipPath id="clip0_4002_85">
<rect width="29" height="53" fill="white"/>
</clipPath>
</defs>
</svg>
