<svg width="31" height="103" viewBox="0 0 31 103" fill="none" xmlns="http://www.w3.org/2000/svg">
<g style="mix-blend-mode:luminosity" clip-path="url(#clip0_4002_108)">
<path d="M19.4936 88.6487C19.6646 87.9623 19.1881 87.0783 19.7922 86.3123C19.8943 86.1831 19.7504 86.0562 19.7164 85.927C19.4372 84.8659 19.2631 83.8017 19.8363 82.7728C19.895 82.6669 19.9701 82.5738 19.8811 82.4761C19.315 81.852 19.622 81.0717 19.4913 80.3718C19.3343 79.5269 19.1696 78.7023 18.5616 78.0429C18.2878 77.7455 18.2368 77.4038 18.2113 77.0283C17.7665 70.5688 17.8454 64.1011 17.888 57.6341C17.9328 50.7436 18.3025 43.8658 18.9816 37.009C19.7558 29.197 20.9129 21.4413 23.1249 13.871C24.2062 10.1708 25.487 6.54566 27.4608 3.18562C27.9968 2.27314 28.6302 1.43576 29.3278 0.641188C29.522 0.419639 29.7362 -0.0309687 30.0371 0.16054C30.3635 0.367819 30.0572 0.772616 29.9226 1.05575C29.3851 2.18227 28.7764 3.27725 28.2752 4.41804C26.197 9.14792 25.0036 14.1069 24.2936 19.1912C23.9061 21.964 23.7003 24.7525 23.6648 27.5432C23.5534 36.2077 24.8682 44.6941 27.1893 53.0447C28.5366 57.8932 29.7857 62.7718 30.5058 67.7465C31.5453 74.9307 29.5923 81.3323 24.7893 86.8913C23.4737 88.4144 21.9284 89.6821 20.1928 90.7365C19.6908 91.0414 19.4642 91.0227 19.489 90.3836C19.5099 89.8473 19.4929 89.3096 19.4929 88.648L19.4936 88.6487Z" fill="#F4BF79"/>
<path d="M19.7226 91.0425C19.6669 91.0425 19.6135 91.0305 19.5656 91.0034C19.4194 90.9216 19.3606 90.7293 19.3737 90.3808C19.3877 90.0188 19.3846 89.6636 19.3815 89.2521C19.3799 89.0613 19.3784 88.8615 19.3784 88.649L19.3815 88.6227C19.4403 88.3861 19.4155 88.1165 19.39 87.8311C19.3444 87.3295 19.2933 86.7617 19.7009 86.2442C19.721 86.2187 19.7195 86.1977 19.6669 86.0985C19.6444 86.0557 19.6189 86.0077 19.605 85.9551C19.3451 84.969 19.1201 83.8237 19.7349 82.7197C19.7427 82.7062 19.7504 82.6927 19.7581 82.6799C19.8185 82.5763 19.8123 82.5695 19.7953 82.5515C19.3884 82.1024 19.3993 81.5872 19.4101 81.0893C19.4155 80.8452 19.4202 80.6154 19.3784 80.3931C19.2299 79.5955 19.0767 78.7702 18.4766 78.119C18.1718 77.7886 18.1216 77.4033 18.0968 77.0368C17.6807 70.9994 17.7232 64.8554 17.7642 58.9141L17.7727 57.6344C17.8168 50.8227 18.185 43.8803 18.8671 36.9988C19.7968 27.6171 21.0761 20.475 23.0143 13.8413C24.7205 8.0029 26.2333 5.05066 27.361 3.13032C27.863 2.27642 28.4778 1.43829 29.2404 0.568614C29.2783 0.525806 29.3178 0.471733 29.3603 0.413905C29.5235 0.191605 29.771 -0.144098 30.102 0.0669368C30.4625 0.295996 30.2474 0.694784 30.1051 0.95839C30.0781 1.00946 30.051 1.05827 30.0293 1.10409C29.8143 1.55469 29.5846 2.0068 29.3619 2.44465C29.0285 3.10178 28.6828 3.7807 28.3827 4.46337C26.4947 8.76067 25.1946 13.5829 24.4088 19.2073C24.0283 21.9304 23.8171 24.7362 23.7808 27.5458C23.6748 35.7814 24.8265 44.1124 27.3014 53.0164C28.5908 57.6539 29.8847 62.6466 30.621 67.7318C31.6559 74.8852 29.7238 81.3566 24.879 86.9652C23.6013 88.444 22.0452 89.7462 20.2547 90.8337C20.0714 90.9456 19.8834 91.0425 19.7226 91.0425ZM19.6096 88.6625C19.6096 88.869 19.6112 89.0643 19.6127 89.2506C19.6158 89.6478 19.6189 90.0226 19.605 90.3891C19.5919 90.7218 19.6537 90.7931 19.6808 90.8082C19.7148 90.8277 19.8192 90.8314 20.1309 90.6422C21.9006 89.5667 23.4381 88.281 24.7004 86.8195C29.5019 81.262 31.4161 74.8499 30.3905 67.7625C29.6565 62.6895 28.3641 57.705 27.0771 53.0742C24.5967 44.1499 23.442 35.7979 23.5487 27.542C23.5851 24.7235 23.797 21.9087 24.1783 19.1765C24.9664 13.5319 26.272 8.69007 28.1685 4.374C28.4709 3.68532 28.8174 3.0034 29.153 2.34401C29.375 1.90767 29.604 1.45631 29.8182 1.00871C29.8414 0.959892 29.87 0.907321 29.8986 0.853248C30.0781 0.520549 30.1314 0.355326 29.9744 0.25469C29.8499 0.175083 29.747 0.274968 29.549 0.544581C29.5042 0.606165 29.4609 0.663993 29.4168 0.71431C28.6635 1.57272 28.0563 2.39958 27.5621 3.24147C25.4282 6.87487 24.1296 10.847 23.237 13.9021C21.3027 20.5223 20.0257 27.6517 19.0976 37.0198C18.4162 43.8938 18.0489 50.8302 18.004 57.6351L17.9955 58.9149C17.9545 64.8524 17.912 70.9919 18.3273 77.021C18.3505 77.362 18.393 77.6902 18.6483 77.9681C19.2925 78.6665 19.4588 79.5617 19.6058 80.3518C19.6514 80.5966 19.646 80.849 19.6406 81.093C19.6305 81.5692 19.6212 82.019 19.9677 82.4021C20.1 82.5478 20.0149 82.6942 19.9585 82.7903C19.9515 82.8023 19.9445 82.8144 19.9376 82.8264C19.3621 83.8598 19.5795 84.954 19.8277 85.8995C19.8355 85.9273 19.8525 85.9604 19.8711 85.9957C19.9213 86.091 19.9979 86.2352 19.8834 86.3809C19.5308 86.8285 19.5756 87.328 19.6197 87.8109C19.6468 88.1105 19.6723 88.3936 19.6089 88.6618L19.6096 88.6625Z" fill="#E0994F"/>
<path d="M17.3613 45.2947C17.6931 46.8223 17.5415 48.328 17.4757 49.8278C17.3644 52.3632 17.1671 54.8957 17.0357 57.4303C16.717 63.5451 16.4262 69.6606 16.0967 75.7746C16.0449 76.7351 16.0155 77.6829 15.2722 78.5248C14.5839 79.3043 14.5174 80.3926 14.4199 81.4102C14.3727 81.8999 14.5777 82.4323 14.1291 82.8536C14.0046 82.9708 14.1685 83.1052 14.191 83.2314C14.3975 84.3744 14.6713 85.525 14.0131 86.6275C13.9721 86.6958 13.9125 86.7927 13.9334 86.852C14.6527 88.8843 14.02 90.9743 14.2173 93.0276C14.2497 93.3686 14.1074 93.6269 13.8406 93.8365C11.0702 96.0121 8.16978 97.9535 4.61044 98.7128C3.92131 98.86 3.22135 98.863 2.53377 98.7721C1.10601 98.5836 0.185624 97.4879 0.121429 95.9919C0.0324845 93.9153 0.852324 92.0731 1.68841 90.2391C4.88888 83.2194 7.72351 76.0622 10.2882 68.7999C12.6542 62.0994 14.7633 55.326 16.5739 48.464C16.8516 47.4111 17.0991 46.3506 17.3605 45.2939L17.3613 45.2947Z" fill="#D3D77B"/>
<path d="M3.43173 98.9453C3.13473 98.9453 2.82999 98.9251 2.51907 98.8837C1.0596 98.6915 0.0734767 97.5582 0.006188 95.9968C-0.0858506 93.8535 0.801278 91.9098 1.58322 90.1938C4.6522 83.4632 7.46364 76.4532 10.1792 68.7636C12.593 61.9271 14.7068 55.0884 16.4618 48.4367C16.6513 47.7172 16.8299 46.9812 17.0032 46.27C17.0844 45.9358 17.1656 45.6016 17.2483 45.2681L17.3682 44.7822L17.4742 45.2711C17.7596 46.5847 17.6907 47.8937 17.6242 49.1599C17.6126 49.3844 17.601 49.6082 17.591 49.8328C17.5276 51.2747 17.4347 52.7385 17.3458 54.1541C17.2777 55.2296 17.2074 56.3418 17.1509 57.4361C17.0186 59.9835 16.8879 62.5737 16.7626 65.0791C16.5863 68.5864 16.4045 72.2137 16.2127 75.7803L16.2081 75.8629C16.1586 76.7912 16.1075 77.751 15.3604 78.5974C14.7339 79.3071 14.6411 80.2954 14.5514 81.2507L14.5351 81.4197C14.5228 81.5481 14.529 81.6795 14.5351 81.8192C14.5514 82.1827 14.5707 82.5943 14.2095 82.9337C14.1948 82.9472 14.1879 82.954 14.2405 83.0516C14.266 83.0989 14.2946 83.1515 14.3047 83.2108C14.3186 83.2874 14.3325 83.3633 14.3464 83.4399C14.5436 84.5108 14.7478 85.6186 14.1128 86.6828L14.109 86.6895C14.0904 86.7203 14.0487 86.7909 14.0448 86.8202C14.4957 88.0984 14.4207 89.4105 14.348 90.6789C14.3039 91.448 14.2583 92.2433 14.3325 93.0161C14.3673 93.3781 14.2304 93.6747 13.9133 93.9233C11.2627 96.0051 8.30436 98.0396 4.63519 98.8222C4.25234 98.904 3.85015 98.9446 3.43095 98.9446L3.43173 98.9453ZM17.3443 45.8494C17.3056 46.0064 17.2677 46.1641 17.229 46.3218C17.0558 47.0345 16.8771 47.7713 16.6868 48.493C14.9304 55.1507 12.815 61.9955 10.3988 68.8372C7.68097 76.5336 4.86722 83.5495 1.79514 90.2861C1.02325 91.9789 0.1485 93.8978 0.238218 95.9886C0.300866 97.4576 1.18722 98.4819 2.55001 98.6614C3.27472 98.7568 3.95921 98.7373 4.58646 98.6036C8.20845 97.8308 11.1405 95.8136 13.7687 93.7491C14.0239 93.5485 14.1299 93.3225 14.1028 93.0378C14.027 92.2485 14.0726 91.445 14.1175 90.6677C14.1894 89.4187 14.2629 88.127 13.8244 86.8885C13.7865 86.7827 13.8576 86.664 13.9094 86.5776C14.5057 85.5788 14.3178 84.5597 14.119 83.4812C14.1051 83.4046 14.0904 83.328 14.0773 83.2514C14.0726 83.2266 14.0541 83.1921 14.0355 83.1575C13.9891 83.0712 13.9025 82.9104 14.0487 82.773C14.3348 82.5041 14.3201 82.1767 14.3039 81.8305C14.2977 81.6893 14.2907 81.5443 14.3039 81.4001L14.3201 81.2319C14.4129 80.2413 14.5088 79.2162 15.1841 78.4524C15.8801 77.6646 15.9265 76.7844 15.976 75.8524L15.9807 75.7698C16.1725 72.2032 16.355 68.5766 16.5306 65.0694C16.6567 62.564 16.7866 59.9737 16.9189 57.4255C16.9761 56.3306 17.0465 55.2176 17.1138 54.1414C17.2035 52.7264 17.2955 51.2635 17.3589 49.8238C17.369 49.5992 17.3806 49.3747 17.3922 49.1494C17.4487 48.0702 17.5067 46.9594 17.3435 45.8502L17.3443 45.8494Z" fill="#B5D338"/>
<path d="M9.28971 102.262C8.03366 101.774 6.90212 102.341 5.74043 102.764C5.42487 102.879 4.98633 102.996 4.76977 102.694C4.5068 102.328 4.93605 102.097 5.16035 101.865C5.75512 101.249 6.54093 100.945 7.33602 100.679C8.77461 100.196 10.0747 99.5161 11.1421 98.4264C12.1793 97.3674 13.682 97.1324 14.9698 96.5323C17.6111 95.3014 20.489 94.6953 23.2664 93.8249C24.2309 93.523 25.1157 94.0239 26.0044 94.3161C26.1892 94.3769 26.3416 94.5248 26.5249 94.5954C26.7469 94.6811 27.1468 94.476 27.1854 94.814C27.2303 95.203 26.8018 95.2586 26.5133 95.3502C25.6084 95.6394 24.6988 95.9157 23.7444 96.0224C23.4938 96.0502 23.2309 96.1328 23.0135 96.2567C21.5053 97.1136 19.8703 97.5139 18.1393 97.565C17.7828 97.5755 17.5175 97.752 17.2978 97.9547C16.71 98.4977 15.9962 98.7921 15.2467 99.0047C13.6704 99.4515 12.4855 100.505 11.2055 101.415C10.6401 101.816 10.0322 102.135 9.28971 102.262Z" fill="#A3CBDB"/>
<path d="M5.19051 103C4.9987 103 4.80612 102.943 4.67463 102.759C4.40548 102.384 4.72336 102.103 4.93373 101.919C4.98555 101.873 5.03505 101.83 5.07527 101.788C5.69402 101.147 6.51231 100.836 7.29735 100.573C8.90609 100.033 10.1003 99.3261 11.057 98.3498C11.7925 97.5988 12.7593 97.2511 13.6944 96.9139C14.1036 96.7667 14.5259 96.6142 14.9188 96.4317C16.7843 95.5621 18.7952 94.995 20.7404 94.4468C21.5595 94.2155 22.4064 93.9774 23.2301 93.7191C24.0399 93.466 24.7862 93.7469 25.5078 94.0187C25.6826 94.0848 25.8644 94.1531 26.0407 94.211C26.1521 94.2478 26.248 94.3086 26.3416 94.3679C26.4189 94.4168 26.4917 94.4633 26.5667 94.4926C26.62 94.5129 26.7074 94.5084 26.7917 94.5039C26.9681 94.4941 27.2628 94.4776 27.3007 94.8035C27.3502 95.2324 26.9433 95.3473 26.6742 95.4231C26.6309 95.4351 26.5891 95.4471 26.5497 95.4599C25.6239 95.7558 24.7128 96.0299 23.7576 96.1373C23.5201 96.1636 23.2703 96.244 23.0715 96.3566C21.6198 97.1812 19.9616 97.6266 18.1417 97.6799C17.8725 97.6882 17.6366 97.7986 17.3767 98.0389C16.7108 98.654 15.9049 98.9371 15.2776 99.1151C14.0262 99.4703 13.0006 100.232 12.0083 100.969C11.7686 101.147 11.5203 101.332 11.272 101.508C10.6007 101.985 9.97652 102.26 9.30828 102.374L9.27579 102.38L9.24485 102.368C8.18602 101.956 7.22542 102.322 6.20835 102.71C6.06527 102.764 5.92296 102.819 5.7791 102.872C5.65689 102.916 5.42332 103.002 5.18897 103.002L5.19051 103ZM23.8898 93.8445C23.6965 93.8445 23.5016 93.8708 23.302 93.9331C22.4752 94.1922 21.6268 94.431 20.8061 94.6631C18.8702 95.2091 16.8686 95.7738 15.0201 96.6352C14.6179 96.823 14.1894 96.977 13.7756 97.1257C12.8653 97.4531 11.924 97.7926 11.2256 98.5053C10.2426 99.5094 9.01901 100.234 7.37392 100.786C6.61595 101.041 5.82782 101.34 5.24543 101.943C5.19825 101.991 5.14333 102.04 5.08997 102.087C4.82777 102.317 4.72723 102.438 4.86567 102.631C4.99638 102.814 5.25394 102.823 5.70021 102.66C5.84252 102.608 5.98406 102.554 6.12637 102.5C7.13106 102.117 8.16978 101.72 9.30209 102.146C9.93012 102.034 10.4978 101.78 11.1374 101.325C11.3834 101.15 11.6309 100.967 11.8691 100.79C12.8777 100.04 13.921 99.2653 15.2142 98.8988C16.1091 98.645 16.7271 98.3295 17.2182 97.8759C17.4077 97.7009 17.7078 97.4674 18.1362 97.4554C19.9414 97.402 21.5177 96.9792 22.9555 96.1629C23.1844 96.0329 23.4598 95.9443 23.732 95.9143C24.6656 95.8099 25.5635 95.5388 26.4777 95.2466C26.5195 95.2331 26.5644 95.2203 26.61 95.2076C26.9139 95.122 27.0965 95.0536 27.071 94.8298C27.0601 94.7359 27.0362 94.7172 26.8064 94.7299C26.6974 94.7359 26.5837 94.7427 26.4831 94.7036C26.3857 94.6661 26.2998 94.6113 26.2163 94.5587C26.132 94.5046 26.0516 94.4543 25.9688 94.4265C25.7871 94.3672 25.6038 94.2981 25.4266 94.2313C24.9061 94.0352 24.4065 93.8475 23.8921 93.8475L23.8898 93.8445Z" fill="#0BB9EE"/>
<path d="M29.2149 95.3083C29.0881 95.2768 28.9465 95.246 28.8081 95.2069C28.4863 95.1153 27.9094 95.3466 27.9449 94.7849C27.9705 94.3808 28.4585 94.1412 28.8437 94.1277C29.4036 94.1082 29.9249 93.976 30.4547 93.8476C30.7332 93.78 30.9474 93.804 30.867 94.1488C30.7463 94.667 29.7919 95.3263 29.2149 95.3083Z" fill="#A3CBDB"/>
<path d="M29.2381 95.4217C29.2288 95.4217 29.2203 95.4217 29.211 95.4217L29.1863 95.4179C29.1484 95.4089 29.109 95.3992 29.0687 95.3894C28.9736 95.3669 28.8746 95.3436 28.7756 95.315C28.6983 95.2933 28.59 95.2933 28.4863 95.294C28.293 95.2948 28.0749 95.2963 27.9403 95.1573C27.8552 95.0702 27.8189 94.9455 27.8297 94.7781C27.8583 94.3275 28.3757 94.0316 28.8398 94.015C29.3634 93.9963 29.846 93.8791 30.3573 93.7552L30.4269 93.7387C30.5754 93.7026 30.7865 93.6688 30.9126 93.789C30.9992 93.8716 31.0217 93.997 30.9807 94.1743C30.8507 94.7345 29.8839 95.4224 29.2389 95.4224L29.2381 95.4217ZM29.2304 95.1964C29.2304 95.1964 29.2358 95.1964 29.2381 95.1964C29.7656 95.1964 30.6481 94.5753 30.7533 94.1239C30.7772 94.0203 30.7672 93.9662 30.7494 93.9497C30.7378 93.9392 30.6852 93.9076 30.4818 93.9572L30.4122 93.9745C29.9118 94.0962 29.3944 94.2216 28.8468 94.2411C28.5304 94.2524 28.0818 94.4506 28.0602 94.7931C28.054 94.8937 28.0695 94.9651 28.1081 95.0041C28.1739 95.0717 28.3317 95.071 28.4848 95.0702C28.6062 95.0702 28.7315 95.0687 28.8406 95.1003C28.9349 95.1273 29.0308 95.1498 29.1236 95.1716C29.16 95.1806 29.1956 95.1889 29.2304 95.1971V95.1964Z" fill="#0BB9EE"/>
</g>
<defs>
<clipPath id="clip0_4002_108">
<rect width="31" height="103" fill="white"/>
</clipPath>
</defs>
</svg>
